<?xml version="1.0" encoding="UTF-8"?><svg id="_레이어_2" xmlns="http://www.w3.org/2000/svg" viewBox="0 0 187.5 229.17"><defs><style>.cls-1{fill:#00aeef;stroke-width:0px;}</style></defs><g id="_레이어_1-2"><path class="cls-1" d="m165.63,63.43c-13.84-27.04-33.04-46.65-62.21-56.7C73.93-3.44,34.25-3.85,21.58,17.91c-5.67,9.74-5.93,23.92-.52,30.43,12.09,14.55,52.49-9.22,76.62,4.89,12.36,7.23,20.44,24.39,15.25,33.81-8.51,15.43-52.67,10.11-79.59,21.72C3.89,121.47-4.93,154.45,2.5,177.08c8.01,24.39,34.92,36.74,64.5,44.57,35.82,9.48,75.55,12.34,97.69-5.48,33.82-27.22,26.54-102.71.94-152.74Zm-73.48,103.99c-4.35,11.93-14.66,17.44-26.83,18.66-5.35.54-6.65-6.41-1.45-7.73.78-.2,1.54-.42,2.28-.66,14.68-4.83,13.99-12.9-.3-18.73-1.56-.63-2.94-1.72-3.98-3.51-.85-1.47-1.04-2.92-1.04-4.54,0-4.09-.5-8.15.07-12.27,1.03-7.46,8.37-6.79,13.91-6.79,4.16,0,8.28-.61,12.49.12,1.77.3,3.1.99,4.35,2.23,1.25,1.25,1.93,2.55,2.2,4.27.65,4.08.09,8.09.09,12.13,0,5.69.23,11.21-1.81,16.81Zm47.04,0c-4.35,11.93-14.66,17.44-26.83,18.66-5.35.54-6.65-6.41-1.45-7.73.78-.2,1.54-.42,2.28-.66,14.68-4.83,13.99-12.9-.3-18.73-1.56-.63-2.94-1.72-3.97-3.51-.85-1.47-1.04-2.92-1.04-4.54,0-4.09-.5-8.15.07-12.27,1.03-7.46,8.37-6.79,13.91-6.79,4.16,0,8.28-.61,12.49.12,1.77.3,3.1.99,4.35,2.23,1.25,1.25,1.93,2.55,2.2,4.27.65,4.08.09,8.09.09,12.13,0,5.69.23,11.21-1.81,16.81Z"/></g></svg>